<?xml version="1.0" standalone="no"?>
<!DOCTYPE svg PUBLIC "-//W3C//DTD SVG 20010904//EN"
 "http://www.w3.org/TR/2001/REC-SVG-20010904/DTD/svg10.dtd">
<svg version="1.0" xmlns="http://www.w3.org/2000/svg"
 width="512.000000pt" height="512.000000pt" viewBox="0 0 512.000000 512.000000"
 preserveAspectRatio="xMidYMid meet">
<metadata>
Created by potrace 1.14, written by Peter Selinger 2001-2017
</metadata>
<g transform="translate(0.000000,512.000000) scale(0.100000,-0.100000)"
fill="#000000" stroke="none">
<path d="M1710 5104 c-222 -59 -400 -279 -400 -496 l0 -47 -120 -81 c-610
-414 -995 -1057 -1071 -1789 -17 -162 -7 -484 20 -634 47 -264 107 -450 221
-682 130 -265 288 -484 496 -685 376 -364 837 -588 1369 -666 124 -18 465 -31
465 -17 0 5 -16 49 -36 98 -61 153 -48 228 61 331 72 69 95 124 95 224 0 101
-22 151 -108 243 -101 107 -120 134 -132 195 -14 65 -1 118 51 198 79 122 69
238 -29 326 -32 29 -73 46 -244 102 -179 58 -210 71 -235 99 -15 18 -84 128
-152 245 -136 235 -151 252 -232 252 -59 0 -88 -22 -145 -111 -24 -37 -54 -75
-68 -84 -86 -57 -206 4 -206 104 0 51 127 532 149 561 10 14 84 60 172 105
118 61 159 88 176 114 43 65 22 160 -52 233 -53 52 -85 65 -250 97 -145 29
-146 30 -276 106 -71 43 -132 82 -135 87 -13 21 134 248 273 421 52 64 96 117
98 117 2 0 15 -20 30 -45 38 -66 178 -239 217 -269 19 -14 56 -31 84 -37 108
-25 184 28 325 229 120 173 196 333 229 486 15 70 13 231 -3 291 -76 273 -372
449 -637 379z m181 -325 c86 -29 139 -101 139 -189 0 -167 -192 -257 -316
-148 -89 78 -95 195 -16 280 55 59 125 79 193 57z"/>
<path d="M4379 3928 c-81 -144 -119 -176 -233 -197 -110 -20 -164 -66 -226
-191 -58 -116 -96 -167 -147 -197 -46 -27 -54 -28 -183 -29 -109 -1 -145 -5
-187 -22 -81 -31 -134 -66 -186 -121 -64 -69 -100 -151 -131 -300 -14 -67 -36
-146 -49 -175 -13 -28 -79 -125 -147 -215 -67 -91 -127 -179 -132 -198 -12
-44 5 -102 39 -135 58 -54 226 -168 257 -173 27 -6 94 6 179 31 15 5 17 -4 17
-84 0 -223 122 -496 331 -740 79 -93 126 -122 199 -122 25 0 63 9 86 19 106
48 345 409 400 604 10 37 21 67 24 67 3 0 110 -82 239 -181 128 -99 237 -177
242 -172 11 12 92 215 123 308 35 110 72 268 93 405 25 161 24 518 -1 685 -63
418 -219 795 -464 1122 -43 57 -80 103 -84 103 -3 0 -30 -42 -59 -92z m-509
-1818 c48 -25 85 -71 100 -128 28 -106 -48 -220 -157 -238 -64 -10 -110 3
-155 44 -50 45 -68 85 -68 153 0 142 153 234 280 169z"/>
</g>
</svg>
